<svg xmlns="http://www.w3.org/2000/svg" width="1200" height="630" viewBox="0 0 1200 630">
  <defs>
    <linearGradient id="g2" x1="0" y1="0" x2="1" y2="1">
      <stop offset="0" stop-color="#22d3ee"/>
      <stop offset="1" stop-color="#111827"/>
    </linearGradient>
    <pattern id="grid2" width="48" height="48" patternUnits="userSpaceOnUse">
      <path d="M48 0H0V48" fill="none" stroke="#22d3ee22" stroke-width="1"/>
    </pattern>
  </defs>
  <rect width="1200" height="630" fill="url(#g2)"/>
  <rect width="1200" height="630" fill="url(#grid2)"/>
  <g transform="translate(600,315)">
    <path d="M0 -120c120 0 160 40 160 40v120c0 60 -80 120 -160 140c-80 -20 -160 -80 -160 -140v-120s40 -40 160 -40z" fill="#0ea5e9" opacity="0.25"/>
    <path d="M0 -90c90 0 120 30 120 30v100c0 50 -60 95 -120 110c-60 -15 -120 -60 -120 -110v-100s30 -30 120 -30z" fill="none" stroke="#e5e7eb" stroke-width="8"/>
    <rect x="-56" y="-10" width="112" height="90" rx="10" fill="#0ea5e9" stroke="#e5e7eb" stroke-width="8"/>
    <circle cx="0" cy="35" r="14" fill="#111827"/>
  </g>
  <text x="600" y="560" text-anchor="middle" font-family="Inter,Segoe UI,Arial" font-size="40" fill="#f3f4f6">Privacy & Surveillance — 2025</text>
</svg>